<?xml version="1.0" encoding="UTF-8"?>
<svg version="1.1" xmlns="http://www.w3.org/2000/svg" width="1280" height="1280">
<path d="M0 0 C1.14917908 0.00060425 2.29835815 0.0012085 3.48236084 0.00183105 C21.3271888 0.02725236 38.98232623 0.41073262 56.75 2.1875 C58.04260742 2.31108887 59.33521484 2.43467773 60.66699219 2.56201172 C98.60306515 6.24239186 135.92482781 13.74271663 172.47265625 24.5234375 C174.58132994 25.13831662 176.69431405 25.73136747 178.8125 26.3125 C180.00875 26.6425 181.205 26.9725 182.4375 27.3125 C183.92830078 27.71855469 183.92830078 27.71855469 185.44921875 28.1328125 C188.20146492 29.01222844 190.81224056 29.99706695 193.484375 31.0859375 C199.55140942 33.55467538 205.74783417 35.54534665 211.98242188 37.54296875 C216.99990063 39.17966662 221.81090378 41.01440315 226.6081543 43.21435547 C229.98708163 44.74956627 233.43405951 46.1110979 236.875 47.5 C248.42057125 52.22040846 259.58396939 57.46536977 270.54516602 63.41772461 C273.75233172 65.15234611 276.95042983 66.77679773 280.3125 68.1875 C286.02206031 70.63445442 291.31488299 73.84824283 296.66943359 76.9765625 C298.93685079 78.29625146 301.2119124 79.60206604 303.48828125 80.90625 C311.37057071 85.43035816 319.20184108 89.97980822 326.81640625 94.9453125 C328.72095205 96.21763321 328.72095205 96.21763321 330.75 97.1875 C330.75 97.8475 330.75 98.5075 330.75 99.1875 C331.32621094 99.29964844 331.90242187 99.41179687 332.49609375 99.52734375 C343.92662868 102.87528206 354.85208048 114.2271787 364.31640625 121.40234375 C366.60058117 123.18297127 366.60058117 123.18297127 368.75 124.1875 C368.75 124.8475 368.75 125.5075 368.75 126.1875 C369.31460938 126.44273437 369.87921875 126.69796875 370.4609375 126.9609375 C373.03436936 128.33987539 375.11473217 129.96452858 377.375 131.8125 C380.1075798 134.04085377 382.84082629 136.25808782 385.625 138.421875 C386.5325 139.12828125 387.44 139.8346875 388.375 140.5625 C389.21289062 141.20960938 390.05078125 141.85671875 390.9140625 142.5234375 C391.51992187 143.07257813 392.12578125 143.62171875 392.75 144.1875 C392.75 144.8475 392.75 145.5075 392.75 146.1875 C393.4925 146.414375 394.235 146.64125 395 146.875 C398.28199867 148.44140846 399.5452774 150.34269665 401.75 153.1875 C403.07467746 153.8712045 404.40863633 154.53714186 405.75 155.1875 C407.45779973 156.81199243 409.12550757 158.47970027 410.75 160.1875 C411.6471875 161.0228125 411.6471875 161.0228125 412.5625 161.875 C413.75 163.1875 413.75 163.1875 413.75 165.1875 C414.36875 165.249375 414.9875 165.31125 415.625 165.375 C417.75 166.1875 417.75 166.1875 419 168.75 C419.2475 169.554375 419.495 170.35875 419.75 171.1875 C420.74 171.1875 421.73 171.1875 422.75 171.1875 C422.9975 171.97125 423.245 172.755 423.5 173.5625 C424.94494285 176.59687999 425.80565819 176.85779725 428.75 178.1875 C429.08 179.1775 429.41 180.1675 429.75 181.1875 C430.575 181.496875 431.4 181.80625 432.25 182.125 C433.4875 182.6509375 433.4875 182.6509375 434.75 183.1875 C435.1221042 184.51053717 435.45630173 185.84487935 435.75 187.1875 C437.07407669 187.87236725 438.40909241 188.53620203 439.75 189.1875 C441.12073786 190.82354196 442.45055256 192.49428061 443.75 194.1875 C444.6575 195.074375 445.565 195.96125 446.5 196.875 C448.75 199.1875 448.75 199.1875 448.75 201.1875 C449.32878906 201.42210937 449.90757813 201.65671875 450.50390625 201.8984375 C453.28112927 203.49232202 454.70635554 205.29519168 456.6875 207.8125 C457.86119141 209.28783203 457.86119141 209.28783203 459.05859375 210.79296875 C459.70030518 211.60580322 459.70030518 211.60580322 460.35498047 212.43505859 C461.85647286 214.32125257 463.38045763 216.18739724 464.91015625 218.05078125 C471.39569939 225.95473846 477.70855037 233.93660594 483.75 242.1875 C484.43707031 243.12207031 485.12414063 244.05664062 485.83203125 245.01953125 C487.81716393 247.73343157 489.78797936 250.45685271 491.75 253.1875 C492.32363281 253.98542969 492.89726563 254.78335938 493.48828125 255.60546875 C511.05612887 280.36199884 526.41225824 306.94503859 539.75 334.1875 C540.19069824 335.08678223 540.63139648 335.98606445 541.08544922 336.91259766 C546.75700148 348.5246543 552.13621228 360.11543596 556.75 372.1875 C557.49464285 374.04026573 558.23935008 375.89301132 558.98925781 377.74365234 C560.25950458 380.88502642 561.50724447 384.03516412 562.75 387.1875 C563.00281738 387.82800293 563.25563477 388.46850586 563.51611328 389.12841797 C567.03912689 398.11378031 570.02289213 407.1527362 572.66796875 416.43359375 C573.46997029 419.21598899 574.30656221 421.95205748 575.25 424.6875 C587.76460107 461.60207745 594.37504861 500.64351396 598.4375 539.3125 C598.55689941 540.44856689 598.67629883 541.58463379 598.79931641 542.75512695 C600.70358466 561.81847809 600.99623088 580.792314 601 599.9375 C601.00029457 600.62448219 601.00058914 601.31146439 601.00089264 602.01926422 C601.00244794 624.52386811 600.55577267 646.83351274 597.75 669.1875 C597.60434601 670.35786804 597.60434601 670.35786804 597.45574951 671.55187988 C591.89203932 715.75044379 583.50193562 762.25621365 566.22265625 803.49609375 C564.22247496 808.50981077 562.5572738 813.61580799 560.92944336 818.76098633 C559.21788658 824.08414071 557.07735704 829.10722466 554.75 834.1875 C554.10412555 835.65117932 553.46087588 837.11601981 552.8203125 838.58203125 C549.46622898 846.21114427 546.04409436 853.7642719 542.25 861.1875 C540.48555622 864.71638757 538.83632914 868.29108974 537.1875 871.875 C534.60408534 877.45970381 531.86145845 882.87863172 528.75 888.1875 C528.18152344 889.16589844 527.61304688 890.14429688 527.02734375 891.15234375 C525.81360842 893.23708235 524.5975124 895.32044858 523.37890625 897.40234375 C519.93497346 903.28683142 519.93497346 903.28683142 516.64453125 909.2578125 C513.88512112 914.38370705 510.77797805 919.09411088 507.38671875 923.82421875 C505.96221462 925.88108032 504.70353034 927.934667 503.5 930.125 C502.01484302 932.72402472 500.80290228 934.13459772 498.75 936.1875 C498.3375 937.05375 497.925 937.92 497.5 938.8125 C495.53043559 942.61094564 493.11496643 945.68273111 490.453125 949.015625 C488.39425714 951.64115374 486.58542321 954.40271996 484.75 957.1875 C483.42744688 958.86273395 482.09294481 960.52856818 480.75 962.1875 C479.26096446 964.15946598 477.7848386 966.14054363 476.3125 968.125 C474.50164481 970.51532886 472.62898786 972.850397 470.75 975.1875 C470.12480469 975.97769531 469.49960938 976.76789062 468.85546875 977.58203125 C465.12995174 982.27876247 461.33785857 986.88161777 457.3515625 991.359375 C455.82790018 993.09857979 454.38065787 994.88144278 452.9375 996.6875 C452.215625 997.5125 451.49375 998.3375 450.75 999.1875 C450.09 999.1875 449.43 999.1875 448.75 999.1875 C448.37875 1000.3321875 448.37875 1000.3321875 448 1001.5 C446.61932227 1004.46845711 445.36249013 1005.33347475 442.75 1007.1875 C442.42 1008.1775 442.09 1009.1675 441.75 1010.1875 C440.1103279 1011.55389342 438.43889872 1012.8824419 436.75 1014.1875 C435.06237149 1015.8329378 433.3959651 1017.50038577 431.75 1019.1875 C430.904375 1020.0125 430.05875 1020.8375 429.1875 1021.6875 C426.75543753 1024.08140968 426.75543753 1024.08140968 424.9375 1026.5625 C421.90120672 1030.20605193 418.35760453 1033.12332773 414.75 1036.1875 C409.15420793 1040.98681328 409.15420793 1040.98681328 403.875 1046.125 C401.75 1048.1875 401.75 1048.1875 399.75 1048.1875 C399.46125 1048.80625 399.1725 1049.425 398.875 1050.0625 C397.75 1052.1875 397.75 1052.1875 395.75 1054.1875 C394.76 1054.1875 393.77 1054.1875 392.75 1054.1875 C392.523125 1054.765 392.29625 1055.3425 392.0625 1055.9375 C390.38185566 1058.81860459 388.41305437 1060.16126298 385.75 1062.1875 C384.41133869 1063.36899055 383.07838138 1064.55696314 381.75 1065.75 C378.87804664 1068.28439168 376.033835 1070.217199 372.75 1072.1875 C370.71328634 1073.91806881 368.72833546 1075.70044693 366.73828125 1077.484375 C364.22993406 1079.63297888 361.50495552 1081.37173386 358.75 1083.1875 C357.76 1084.2084375 357.76 1084.2084375 356.75 1085.25 C354.75 1087.1875 354.75 1087.1875 352.0625 1088.5 C348.24430489 1090.44511827 345.18623568 1092.89051226 341.84765625 1095.5546875 C339.58248238 1097.31789546 337.23244462 1098.75029522 334.75 1100.1875 C333.61909476 1100.99176028 332.49461953 1101.80510162 331.375 1102.625 C329.02553385 1104.33091673 326.66644492 1105.84668041 324.125 1107.25 C320.8110985 1109.02129086 320.8110985 1109.02129086 318.4375 1111.125 C315.23578365 1113.58213115 311.88369964 1115.20972127 308.25 1116.94140625 C305.65730845 1118.23370094 303.21831616 1119.67206869 300.75 1121.1875 C292.28595989 1126.30740175 283.64968284 1130.83153318 274.77490234 1135.18457031 C272.85736422 1136.13432274 270.95244669 1137.1048591 269.05078125 1138.0859375 C257.75809033 1143.88701812 246.1561081 1148.94695619 234.5078125 1153.98779297 C232.27909945 1154.9573305 230.05866638 1155.94094593 227.84375 1156.94140625 C217.92132841 1161.36073723 207.66626274 1164.81096397 197.38671875 1168.29296875 C195.18180341 1169.0410067 192.98066205 1169.79849371 190.78125 1170.5625 C187.11802284 1171.81657777 183.44070731 1173.01755277 179.75 1174.1875 C178.98429688 1174.43290527 178.21859375 1174.67831055 177.4296875 1174.93115234 C126.83843009 1190.95628555 71.89635637 1200.19337663 18.8046875 1200.390625 C16.88884354 1200.40114647 16.88884354 1200.40114647 14.93429565 1200.41188049 C10.83119195 1200.43127394 6.72814492 1200.43631574 2.625 1200.4375 C1.57364616 1200.43816278 1.57364616 1200.43816278 0.50105286 1200.43883896 C-22.19748963 1200.44633432 -44.69881778 1199.96953822 -67.25 1197.1875 C-67.98208679 1197.0979303 -68.71417358 1197.0083606 -69.46844482 1196.91607666 C-136.92260801 1188.58323722 -204.75735989 1170.74887745 -265.25 1139.1875 C-267.24177659 1138.19084426 -269.23805917 1137.20358683 -271.23461914 1136.21655273 C-292.63282671 1125.61927334 -314.47821353 1114.2171488 -333.38671875 1099.51953125 C-335.46975308 1098.03040189 -337.6184893 1096.83371137 -339.875 1095.625 C-343.76194373 1093.53867465 -346.91553327 1091.09629013 -350.25 1088.1875 C-353.760554 1085.45706911 -357.3502955 1082.83440568 -360.9609375 1080.23828125 C-365.55266686 1076.93601013 -370.01437164 1073.62190201 -374.25 1069.875 C-376.96382371 1067.58521124 -379.7971915 1065.45806793 -382.625 1063.3125 C-394.10150248 1054.56110978 -394.10150248 1054.56110978 -398.25 1050.1875 C-398.25 1049.5275 -398.25 1048.8675 -398.25 1048.1875 C-398.971875 1047.960625 -399.69375 1047.73375 -400.4375 1047.5 C-403.82355877 1045.91983924 -405.71677659 1043.91558675 -408.25 1041.1875 C-409.013125 1040.465625 -409.77625 1039.74375 -410.5625 1039 C-412.25 1037.1875 -412.25 1037.1875 -412.25 1035.1875 C-413.13365234 1035.05794922 -413.13365234 1035.05794922 -414.03515625 1034.92578125 C-416.86065052 1033.98394983 -417.83427717 1032.68189863 -419.6875 1030.375 C-422.33066321 1027.20320415 -425.01489139 1024.75899659 -428.25 1022.1875 C-434.25 1015.8875 -434.25 1015.8875 -434.25 1013.1875 C-434.8275 1012.960625 -435.405 1012.73375 -436 1012.5 C-438.83974845 1010.84348007 -440.26499967 1008.79281294 -442.25 1006.1875 C-444.39963854 1003.96851828 -446.61065332 1001.85260763 -448.875 999.75 C-451.25 997.1875 -451.25 997.1875 -452.3125 994.5 C-453.00484693 992.04947571 -453.00484693 992.04947571 -455.109375 991.2890625 C-457.67864354 989.96692066 -458.73601531 988.57326181 -460.4375 986.25 C-463.08568713 982.71531952 -465.80314808 979.27304157 -468.625 975.875 C-473.35611849 970.11572673 -477.83036097 964.18782844 -482.25 958.1875 C-482.95382812 957.23488281 -483.65765625 956.28226563 -484.3828125 955.30078125 C-487.96488713 950.41799131 -491.43205372 945.48632772 -494.7578125 940.42578125 C-496.35936064 938.02345903 -498.01814227 935.66814924 -499.6875 933.3125 C-506.61441617 923.42768498 -512.67344317 913.09162235 -518.6796875 902.6328125 C-520.5467029 899.38740938 -522.46365892 896.18187497 -524.4375 893 C-528.10539552 886.93954045 -531.14258764 880.54824601 -534.26074219 874.19384766 C-535.18700815 872.31525593 -536.12515276 870.44336253 -537.0703125 868.57421875 C-566.78556854 809.74334189 -585.54311823 746.02500769 -594.4375 680.8125 C-594.56424103 679.89928986 -594.69098206 678.98607971 -594.82156372 678.04519653 C-598.36095072 652.33373771 -599.63490468 626.69111376 -599.5625 600.75 C-599.56134186 599.45131989 -599.56018372 598.15263977 -599.55899048 596.81460571 C-599.52153289 575.46459985 -598.67457738 554.39755443 -596.25 533.1875 C-596.07380127 531.56448975 -596.07380127 531.56448975 -595.89404297 529.90869141 C-595.16704814 523.30859425 -594.26446159 516.74910012 -593.25 510.1875 C-593.09337891 509.1444873 -592.93675781 508.10147461 -592.77539062 507.02685547 C-588.41830082 478.45119082 -581.89675741 450.10460378 -573.01123047 422.59375 C-572.01320031 419.43897602 -571.10109642 416.26256013 -570.19262695 413.08105469 C-568.51485531 407.20722883 -566.72035456 401.46297776 -564.34375 395.828125 C-562.91375261 392.37570273 -561.61539437 388.87673374 -560.3125 385.375 C-559.79180741 383.98432229 -559.27097486 382.59369699 -558.75 381.203125 C-557.82708967 378.73656517 -556.91097704 376.26790022 -556 373.796875 C-553.14505131 366.17115679 -549.85478029 358.80383638 -546.33789062 351.46484375 C-545.10653283 348.88717195 -543.88918555 346.30308426 -542.671875 343.71875 C-534.33791076 326.08093322 -525.32726021 309.02160484 -515.43798828 292.20800781 C-514.44196179 290.51398496 -513.45260178 288.81604485 -512.46484375 287.1171875 C-509.49801884 282.06962938 -506.28144432 277.26571566 -502.86328125 272.51171875 C-501.20857948 270.12782636 -499.73143207 267.6821395 -498.25 265.1875 C-493.25437424 257.32691297 -487.83880574 249.85026372 -482.19946289 242.4440918 C-481.45297485 241.46243042 -481.45297485 241.46243042 -480.69140625 240.4609375 C-480.02153687 239.58574463 -480.02153687 239.58574463 -479.33813477 238.69287109 C-478.17012629 237.16236021 -478.17012629 237.16236021 -477.25 235.1875 C-476.59 235.1875 -475.93 235.1875 -475.25 235.1875 C-474.87875 234.11435547 -474.87875 234.11435547 -474.5 233.01953125 C-473.11136405 229.87340294 -471.40536054 227.54939037 -469.25 224.875 C-468.54875 223.99199219 -467.8475 223.10898437 -467.125 222.19921875 C-466.50625 221.53535156 -465.8875 220.87148438 -465.25 220.1875 C-464.59 220.1875 -463.93 220.1875 -463.25 220.1875 C-462.981875 219.61515625 -462.71375 219.0428125 -462.4375 218.453125 C-461.20867364 216.10865366 -459.82477824 214.06345062 -458.25 211.9375 C-457.734375 211.23109375 -457.21875 210.5246875 -456.6875 209.796875 C-456.213125 209.26578125 -455.73875 208.7346875 -455.25 208.1875 C-454.59 208.1875 -453.93 208.1875 -453.25 208.1875 C-452.97800781 207.59710938 -452.70601562 207.00671875 -452.42578125 206.3984375 C-451.27604536 204.23647566 -450.05977429 202.63595343 -448.4375 200.8125 C-446.46269527 198.56862212 -444.51721097 196.31400413 -442.625 194 C-440.58815594 191.58794783 -438.60024758 189.29461852 -436.25 187.1875 C-435.59 187.1875 -434.93 187.1875 -434.25 187.1875 C-433.9921875 186.60484375 -433.734375 186.0221875 -433.46875 185.421875 C-432.15165983 183.0072097 -430.69911616 181.37009823 -428.75 179.4375 C-428.1415625 178.82390625 -427.533125 178.2103125 -426.90625 177.578125 C-425.25 176.1875 -425.25 176.1875 -423.25 176.1875 C-422.981875 175.548125 -422.71375 174.90875 -422.4375 174.25 C-421.25 172.1875 -421.25 172.1875 -418.25 171.1875 C-417.816875 170.32125 -417.816875 170.32125 -417.375 169.4375 C-414.79534496 164.27818992 -409.62577038 160.80226684 -405.25 157.1875 C-404.24865138 156.18885044 -403.24874135 155.18875707 -402.25 154.1875 C-401.02960939 153.09428979 -399.79973443 152.01161022 -398.5625 150.9375 C-396.46841587 149.11804985 -394.37531949 147.29875558 -392.30078125 145.45703125 C-387.09614766 140.84359336 -381.7096569 136.49456266 -376.25 132.1875 C-375.18742352 131.34384631 -374.12492718 130.50009169 -373.0625 129.65625 C-361.27112936 120.31461481 -349.40091148 111.08996993 -336.796875 102.86328125 C-334.63180138 101.43871594 -332.52781629 99.96824047 -330.4375 98.4375 C-327.71274668 96.51414472 -324.96277535 94.82767542 -322.05078125 93.20703125 C-317.82739068 90.81591425 -313.75463005 88.16310488 -309.68359375 85.5234375 C-303.34888976 81.43246223 -296.91042191 77.71903353 -290.25 74.1875 C-289.02827499 73.52542343 -287.80694478 72.86261801 -286.5859375 72.19921875 C-274.67836736 65.76729692 -262.51314659 59.90766167 -250.25 54.1875 C-249.47043945 53.82269531 -248.69087891 53.45789063 -247.88769531 53.08203125 C-231.33689652 45.38535689 -214.25088534 38.7720957 -196.90649414 33.09960938 C-194.76360007 32.36384499 -192.66326439 31.50481503 -190.58203125 30.609375 C-186.44834123 28.8454088 -182.26285625 27.63784007 -177.9375 26.4375 C-176.56996582 26.05452759 -176.56996582 26.05452759 -175.17480469 25.66381836 C-173.21213619 25.11626229 -171.248732 24.57133762 -169.28466797 24.02880859 C-166.27109533 23.19334831 -163.26255588 22.34127658 -160.25390625 21.48828125 C-128.11067156 12.48705769 -95.50361711 6.44335106 -62.3125 3 C-61.49787292 2.9150528 -60.68324585 2.83010559 -59.84393311 2.74258423 C-39.87372251 0.68352665 -20.07573281 -0.01955182 0 0 Z " fill="#7367A8" transform="translate(639.25,39.8125)"/>
<path d="M0 0 C0.94746094 -0.020625 1.89492188 -0.04125 2.87109375 -0.0625 C12.69290646 -0.11624453 20.74292157 2.40389274 29.1875 7.3125 C30.21315063 7.8995874 30.21315063 7.8995874 31.25952148 8.49853516 C37.47745222 12.14644569 43.0740786 16.41160602 48.69042969 20.91015625 C61.02565499 30.84206247 61.02565499 30.84206247 75.375 37.25 C76.365 37.58 77.355 37.91 78.375 38.25 C84.10179105 38.66559738 88.29589614 37.50539345 93.5625 35.5625 C127.73801483 23.63394797 168.13272846 18.70304513 202.18359375 33.69140625 C219.32124346 42.06095611 230.61391086 53.8585667 237.3671875 71.8515625 C240.12103664 81.13779798 240.73184476 89.8861028 240.6875 99.5625 C240.68468018 100.22361786 240.68186035 100.88473572 240.67895508 101.56588745 C240.34052067 154.64980367 215.83153274 205.15440667 193.375 252.25 C192.88257813 253.28592285 192.39015625 254.3218457 191.8828125 255.38916016 C188.73112801 262.0179275 185.55780719 268.63612888 182.375 275.25 C172.108594 296.58655281 161.96786359 317.8735074 153.30859375 339.92578125 C152.16905482 342.76270871 150.95429195 345.56498544 149.75 348.375 C147.82160975 352.96753554 146.40490815 357.38134331 145.375 362.25 C144.715 362.25 144.055 362.25 143.375 362.25 C143.436875 363.549375 143.436875 363.549375 143.5 364.875 C143.36812812 368.43554073 142.55943913 370.90521063 141.375 374.25 C135.74495529 390.33584204 133.02326649 406.51979867 133 423.5625 C132.99758301 425.25173584 132.99758301 425.25173584 132.99511719 426.97509766 C133.10112469 434.8467434 133.52224211 442.64182504 137.5 449.625 C138.98669062 452.2619768 139.375 453.10600862 139.375 456.25 C140.035 456.25 140.695 456.25 141.375 456.25 C141.74625 456.95125 142.1175 457.6525 142.5 458.375 C147.94140983 466.71849508 157.44219166 470.23173946 166.8046875 472.2421875 C175.53394964 474.00048959 184.31366476 475.40628339 193.11474609 476.75 C202.84668473 478.24251238 212.12513086 479.77453747 221.375 483.25 C222.33921875 483.59160156 223.3034375 483.93320312 224.296875 484.28515625 C231.07767522 486.80401283 231.07767522 486.80401283 233.375 490.25 C234.15617188 490.71792969 234.93734375 491.18585938 235.7421875 491.66796875 C241.62898577 495.20528818 247.20343543 501.73530628 249.375 508.25 C250.56885789 515.38279503 250.62498979 521.36767829 248.375 528.25 C247.715 528.25 247.055 528.25 246.375 528.25 C246.148125 528.765625 245.92125 529.28125 245.6875 529.8125 C243.07064239 534.67237842 240.63062168 539.07526 235.375 541.25 C234.715 542.24 234.055 543.23 233.375 544.25 C232.04423011 544.59342449 230.71068021 544.92619874 229.375 545.25 C228.80458984 545.92675781 228.80458984 545.92675781 228.22265625 546.6171875 C225.47331702 549.04683612 222.19604359 549.82564086 218.75 550.875 C214.21102787 551.96320204 214.21102787 551.96320204 210.375 554.25 C178.6101883 560.40527469 142.26725145 556.69862287 112.375 544.25 C112.375 543.59 112.375 542.93 112.375 542.25 C111.1375 542.064375 109.9 541.87875 108.625 541.6875 C103.11509703 540.49994564 98.80610059 537.78380311 94.07421875 534.80859375 C91.74251812 533.46221379 89.9988505 532.70496695 87.375 532.25 C87.375 531.59 87.375 530.93 87.375 530.25 C86.385 530.25 85.395 530.25 84.375 530.25 C84.375 529.59 84.375 528.93 84.375 528.25 C83.385 528.25 82.395 528.25 81.375 528.25 C81.375 527.59 81.375 526.93 81.375 526.25 C80.385 526.25 79.395 526.25 78.375 526.25 C78.045 525.59 77.715 524.93 77.375 524.25 C76.385 523.92 75.395 523.59 74.375 523.25 C74.045 522.59 73.715 521.93 73.375 521.25 C72.76011719 520.9509375 72.14523437 520.651875 71.51171875 520.34375 C69.09540942 519.10688234 67.9145357 517.83097141 66.1875 515.75 C63.47063219 512.5259058 60.67833712 509.40509528 57.8125 506.3125 C47.375 494.74903682 47.375 494.74903682 47.375 490.25 C46.715 490.25 46.055 490.25 45.375 490.25 C45.106875 489.569375 44.83875 488.88875 44.5625 488.1875 C43.72376064 486.1127237 42.85195255 484.05116949 41.95703125 482 C25.23053881 442.97492252 30.15005547 399.87125459 43.1875 360.5625 C43.51814453 359.54994141 43.84878906 358.53738281 44.18945312 357.49414062 C48.12911705 345.61465497 53.16133946 334.37371289 58.625 323.125 C59.16640625 322.00351562 59.7078125 320.88203125 60.265625 319.7265625 C63.94866071 312.10267857 63.94866071 312.10267857 65.375 309.25 C66.035 309.25 66.695 309.25 67.375 309.25 C67.53101685 308.18749023 67.53101685 308.18749023 67.69018555 307.10351562 C68.46474533 303.87604514 69.70429918 301.48515088 71.33203125 298.59375 C71.94369141 297.49998047 72.55535156 296.40621094 73.18554688 295.27929688 C73.8526923 294.10276688 74.52001434 292.926337 75.1875 291.75 C75.87487987 290.52699095 76.56172289 289.30368002 77.24804688 288.08007812 C81.72706664 280.10809292 86.26107098 272.16710914 90.81811523 264.23950195 C95.52188538 256.0412795 100.08688896 247.76763897 104.65039062 239.49072266 C108.34514947 232.81647239 112.14738946 226.22290433 116.05810547 219.6730957 C126.42377983 202.28322143 136.24268271 184.14731861 133.375 163.25 C131.07767181 155.80207836 127.16710159 149.32819491 120.375 145.25 C114.28326555 142.29204405 107.99546776 142.43484605 101.375 143.25 C97.31767435 144.75513694 93.87996614 146.72532908 90.375 149.25 C89.46363281 149.8790625 88.55226563 150.508125 87.61328125 151.15625 C82.53404002 155.48033735 79.17607684 161.52153282 75.5625 167.0625 C74.75201095 168.29300684 73.94146373 169.52347537 73.13085938 170.75390625 C67.87742701 178.76681374 62.84565422 186.85415661 58.38476562 195.33789062 C57.302373 197.38752773 56.19153446 199.42018334 55.078125 201.453125 C48.12325707 214.27187373 42.04461469 227.49288523 35.97900391 240.74804688 C34.03057569 245.00196687 32.06825677 249.2493689 30.10473633 253.49633789 C28.64869877 256.64644567 27.19516056 259.7976964 25.7421875 262.94921875 C23.16606265 268.53608107 20.58736494 274.12175077 18.0078125 279.70703125 C16.83729003 282.241807 15.66680449 284.77659981 14.49633789 287.31140137 C13.70882356 289.01676211 12.92122626 290.72208455 12.13354492 292.42736816 C7.46050514 302.54481603 2.80920043 312.67148934 -1.8125 322.8125 C-5.12324101 330.076125 -8.58196096 337.23465545 -12.203125 344.34765625 C-13.90130767 347.81400165 -15.34088104 351.33709689 -16.7265625 354.9375 C-18.57955626 359.70694482 -20.52063294 364.43883803 -23.1875 368.8125 C-24.73813751 371.44184187 -25.65055506 374.128837 -26.66796875 376.99609375 C-28.17416377 380.5433367 -30.24663027 383.71364132 -32.3203125 386.953125 C-33.53798622 389.09681406 -34.17226982 390.84280049 -34.625 393.25 C-35.285 393.25 -35.945 393.25 -36.625 393.25 C-36.7075 393.971875 -36.79 394.69375 -36.875 395.4375 C-37.78318991 398.84321217 -39.38639802 400.55050938 -41.625 403.25 C-42.66951438 405.22711651 -43.68198138 407.22250996 -44.625 409.25 C-45.285 409.25 -45.945 409.25 -46.625 409.25 C-46.625 410.24 -46.625 411.23 -46.625 412.25 C-47.285 412.25 -47.945 412.25 -48.625 412.25 C-48.625 413.24 -48.625 414.23 -48.625 415.25 C-49.285 415.58 -49.945 415.91 -50.625 416.25 C-50.955 417.24 -51.285 418.23 -51.625 419.25 C-52.285 419.58 -52.945 419.91 -53.625 420.25 C-53.955 421.24 -54.285 422.23 -54.625 423.25 C-55.285 423.58 -55.945 423.91 -56.625 424.25 C-56.934375 424.889375 -57.24375 425.52875 -57.5625 426.1875 C-58.625 428.25 -58.625 428.25 -61.625 430.25 C-62.0375 430.9925 -62.45 431.735 -62.875 432.5 C-64.84245604 435.59171664 -67.00568733 437.36874624 -69.82421875 439.65625 C-71.57354592 441.20446147 -72.84990803 442.76385056 -74.25 444.625 C-82.65173404 454.62706433 -94.55666113 458.11508258 -107.05078125 459.5234375 C-118.83807199 460.08371092 -130.45100563 455.7935411 -139.6875 448.65625 C-145.52093223 443.32569985 -150.21021529 435.30901354 -150.86328125 427.34375 C-151.13697723 414.09110271 -149.04422531 400.79676265 -143.62109375 388.62109375 C-142.42605929 385.77644309 -141.56335606 382.89571263 -140.6875 379.9375 C-137.73632075 370.11560656 -133.85836113 360.67387735 -129.87890625 351.23046875 C-129.02277566 349.19549168 -128.17685408 347.15619705 -127.33984375 345.11328125 C-123.7909402 336.46350715 -123.7909402 336.46350715 -121.6875 332.5 C-119.33149799 327.95014997 -117.64402815 323.13378487 -115.90649414 318.32324219 C-114.63553113 314.83100699 -113.27983244 311.41493959 -111.75 308.02734375 C-109.18439876 302.34436628 -106.91632812 296.54775449 -104.625 290.75 C-99.87460345 278.73005721 -99.87460345 278.73005721 -97.62890625 273.96875 C-94.62389163 267.30972213 -92.68808017 260.2266706 -90.5625 253.25 C-89.90982439 251.12523475 -89.25556851 249.00096263 -88.6007843 246.87684631 C-88.18022622 245.51165971 -87.76076399 244.14613499 -87.342453 242.78025818 C-86.24855199 239.21888456 -85.10672477 235.68153883 -83.890625 232.16015625 C-80.51942829 222.14714586 -80.38276475 211.41028002 -80.1875 200.9375 C-80.15309814 199.93581787 -80.11869629 198.93413574 -80.08325195 197.90209961 C-80.03700984 189.79632687 -82.05143636 183.26863643 -87.50683594 177.13378906 C-93.96207384 170.84612899 -101.25375308 168.08316711 -110.1875 167.6875 C-116.42394528 167.88583218 -120.65604073 169.56210054 -125.625 173.25 C-126.44871094 173.85070312 -127.27242187 174.45140625 -128.12109375 175.0703125 C-130.86471309 177.4586738 -132.67817957 179.84703801 -134.6875 182.875 C-135.33847656 183.83664062 -135.98945312 184.79828125 -136.66015625 185.7890625 C-139.12233474 190.12602104 -140.85613314 194.59673248 -142.625 199.25 C-143.19525938 200.69506188 -143.76807713 202.13911741 -144.34375 203.58203125 C-144.62935791 204.30108643 -144.91496582 205.0201416 -145.20922852 205.76098633 C-147.8522026 212.4032995 -150.52346801 219.03098695 -153.28515625 225.625 C-158.75702832 238.6974244 -164.02355852 251.81272201 -169.05090332 265.06237793 C-176.7720897 285.40162142 -185.15995884 305.37423478 -194.3359375 325.1015625 C-203.06976759 343.89140164 -210.58459061 363.22492769 -216.87597656 382.97363281 C-217.6784571 385.48840463 -218.45708619 387.91864157 -219.65234375 390.27734375 C-221.07021934 393.15295489 -221.78243667 396.16170685 -222.625 399.25 C-222.93179688 400.25417969 -223.23859375 401.25835938 -223.5546875 402.29296875 C-225.59992939 409.09635604 -227.18501939 415.83732637 -228.5 422.8125 C-230.37333008 432.65054087 -233.01412584 442.17208612 -235.89013672 451.75878906 C-236.59313115 454.14196352 -237.25851801 456.53202562 -237.91015625 458.9296875 C-243.31964673 478.63476193 -253.59721069 499.12776659 -271.9855957 509.60595703 C-287.7040692 517.81219948 -306.13750731 520.10688012 -323.625 521.25 C-324.53894531 521.31058594 -325.45289063 521.37117187 -326.39453125 521.43359375 C-347.68116585 522.05007209 -367.89113575 515.97719875 -386.625 506.25 C-386.625 505.59 -386.625 504.93 -386.625 504.25 C-387.2025 503.96125 -387.78 503.6725 -388.375 503.375 C-389.1175 503.00375 -389.86 502.6325 -390.625 502.25 C-391.285 501.96125 -391.945 501.6725 -392.625 501.375 C-395.08797027 499.98957922 -396.68677729 498.30569075 -398.625 496.25 C-399.3675 495.54875 -400.11 494.8475 -400.875 494.125 C-411.625 482.88636364 -411.625 482.88636364 -411.625 479.25 C-412.285 479.25 -412.945 479.25 -413.625 479.25 C-416.3517785 473.56271913 -417.64429279 468.06696036 -418.75 461.875 C-418.91886719 460.98039062 -419.08773438 460.08578125 -419.26171875 459.1640625 C-425.69915785 424.29037667 -419.76023979 388.81237475 -409.625 355.25 C-409.12033203 353.46335937 -409.12033203 353.46335937 -408.60546875 351.640625 C-407.11544604 346.48787715 -405.46650975 341.38700826 -403.8359375 336.27734375 C-402.35593516 331.62056871 -400.95058803 326.95369946 -399.625 322.25 C-398.58517195 318.68635088 -397.53138919 315.1267973 -396.48046875 311.56640625 C-396.27035156 310.85355469 -396.06023437 310.14070313 -395.84375 309.40625 C-395.5643457 308.45975586 -395.5643457 308.45975586 -395.27929688 307.49414062 C-393.42374166 301.12986319 -391.68953655 294.74426379 -390.0078125 288.33203125 C-381.43694515 255.87754595 -371.5441596 224.28032109 -359.68920898 192.88574219 C-355.64009937 182.13896642 -351.86018278 171.31338544 -348.1362915 160.45013428 C-333.43327669 117.63877632 -317.17307568 73.73075058 -285.625 40.25 C-284.69107422 39.21939453 -284.69107422 39.21939453 -283.73828125 38.16796875 C-268.37953355 21.84326208 -245.85046131 11.61640132 -223.46020508 10.90698242 C-211.32613792 10.74079708 -200.28934517 13.06367539 -188.625 16.25 C-187.9021582 16.44223145 -187.17931641 16.63446289 -186.43457031 16.83251953 C-167.8828137 21.8492947 -150.84659877 30.30965848 -134.30151367 39.93310547 C-119.86168269 48.24196729 -106.28653495 54.01136779 -89.6875 49.625 C-72.43323543 44.27860816 -59.82133101 32.15866023 -47.1328125 19.828125 C-34.06295397 7.40104639 -18.05129 0.09588999 0 0 Z " fill="#101010" transform="translate(713.625,361.75)"/>
<path d="M0 0 C2.45973993 1.28289154 4.93568632 2.53185015 7.41210938 3.78222656 C20.74492447 10.56118531 33.52681206 17.96431984 46.08398438 26.08691406 C46.86612305 26.59222656 47.64826172 27.09753906 48.45410156 27.61816406 C65.10978188 38.43555306 81.07896629 50.01354148 96.37402344 62.68115234 C98.70887348 64.60063643 101.08337377 66.4682484 103.45898438 68.33691406 C107.69377813 71.71195942 111.71485168 75.28793801 115.71679688 78.93457031 C117.81802568 80.84509353 119.94095637 82.72359854 122.08398438 84.58691406 C126.79741217 88.70299655 131.46634413 92.86359855 136.08398438 97.08691406 C137.05513184 97.9722583 137.05513184 97.9722583 138.04589844 98.87548828 C165.70337904 124.17873787 165.70337904 124.17873787 166.64648438 138.96191406 C166.39980035 145.20795359 163.68779371 150.50844983 161.08398438 156.08691406 C160.4063546 157.74915355 159.73591823 159.41442954 159.08398438 161.08691406 C159.64666016 161.72197876 159.64666016 161.72197876 160.22070312 162.36987305 C163.79500754 166.4624291 167.03558193 170.65426262 170.08398438 175.14941406 C170.54474365 175.82568848 171.00550293 176.50196289 171.48022461 177.19873047 C181.30245988 191.72477746 190.66189392 206.49472472 198.94140625 221.95751953 C200.07563966 224.07136222 201.22683741 226.17522833 202.38085938 228.27832031 C222.91682932 265.99079067 237.01972068 307.74878046 245.45117188 349.78222656 C245.66547852 350.83627686 245.87978516 351.89032715 246.10058594 352.97631836 C246.49363312 354.94549735 246.86925083 356.91827206 247.22363281 358.89477539 C248.31529214 364.42574768 249.41665466 367.54485836 254.08398438 371.08691406 C256.69152792 372.7639043 259.3706775 374.27622061 262.08398438 375.77441406 C285.53583833 389.21504069 302.68474787 407.73473142 310.27148438 434.27441406 C313.97711667 449.41104559 314.37487387 464.25201984 314.31445312 479.75488281 C314.31325716 481.80837474 314.31280904 483.86186723 314.31306458 485.9153595 C314.31151206 490.19059747 314.3033169 494.46575024 314.28979492 498.7409668 C314.27277474 504.18732316 314.26898237 509.63358669 314.2697401 515.07996655 C314.26946669 519.31045904 314.2639586 523.54093175 314.25673866 527.77141762 C314.25358512 529.77862715 314.25159246 531.78583889 314.25084496 533.79305077 C314.22933468 561.34209725 314.22933468 561.34209725 311.39648438 574.46191406 C311.2227832 575.2664502 311.04908203 576.07098633 310.87011719 576.89990234 C304.96479221 602.76768203 288.83557989 624.85594747 266.41943359 638.96313477 C245.54127409 651.64301943 220.07203515 657.8945689 195.83398438 652.83691406 C187.9290793 650.69455585 182.67283406 646.79600491 178.08398438 640.08691406 C173.07809983 630.66748805 173.51856535 620.94452861 173.56982422 610.59741211 C173.56435491 608.74300557 173.55710855 606.88860357 173.54823303 605.03421021 C173.53294937 601.05540456 173.53007252 597.07685659 173.53699875 593.09802818 C173.54786028 586.77527853 173.5303079 580.45279329 173.50918579 574.13008118 C173.4789579 564.0974149 173.46723646 554.0648276 173.46360934 544.03211957 C173.45697786 526.14989015 173.42738882 508.26771841 173.37851298 490.38555557 C173.36225403 484.1331993 173.35682245 477.8809568 173.35984975 471.62858182 C173.36523161 444.42726918 172.9866499 417.33751672 169.27148438 390.33691406 C169.0997168 389.06146729 168.92794922 387.78602051 168.75097656 386.47192383 C161.71526152 335.84687048 146.7528351 285.03142494 120.08398438 241.08691406 C119.62846191 240.33087891 119.17293945 239.57484375 118.70361328 238.79589844 C108.87326343 222.5859607 98.09644463 207.14227521 85.60009766 192.87402344 C84.43868047 191.50500994 83.30699592 190.11072346 82.18896484 188.70605469 C76.6235675 181.72508601 70.65654929 175.34899706 64.328125 169.0703125 C62.71052151 167.46344099 61.10391524 165.84612912 59.49804688 164.22753906 C53.01302629 157.73428239 46.27086518 151.8072349 39.08398438 146.08691406 C37.98214049 145.15215306 36.8858137 144.21078719 35.79882812 143.25878906 C2.1021121 113.87487354 -39.26196603 89.16063665 -80.91601562 73.08691406 C-82.17647705 72.59481445 -82.17647705 72.59481445 -83.46240234 72.09277344 C-117.22684479 59.01460021 -152.8487065 51.03539631 -188.91601562 48.08691406 C-189.62064941 48.02761719 -190.3252832 47.96832031 -191.05126953 47.90722656 C-269.90145218 41.56751338 -349.03562846 60.81196253 -417.91601562 99.08691406 C-418.65174805 99.49474121 -419.38748047 99.90256836 -420.14550781 100.32275391 C-442.60467313 112.88714513 -463.51094492 128.22234008 -482.91601562 145.08691406 C-483.5940625 145.66441406 -484.27210938 146.24191406 -484.97070312 146.83691406 C-486.97823547 148.5601178 -488.95095567 150.31530561 -490.91601562 152.08691406 C-491.42825684 152.5487207 -491.94049805 153.01052734 -492.46826172 153.48632812 C-505.98842676 165.73601483 -518.64068066 178.72355943 -529.91601562 193.08691406 C-530.7942411 194.18511507 -531.67318635 195.28274075 -532.55273438 196.37988281 C-559.23260872 229.80472187 -580.29656946 266.86002007 -594.91601562 307.08691406 C-595.22877441 307.94140137 -595.5415332 308.79588867 -595.86376953 309.67626953 C-613.34861878 358.02770599 -617.18703859 407.24588843 -617.28780103 458.15707302 C-617.29995249 463.13007619 -617.32377079 468.10302429 -617.34642029 473.07598877 C-617.38768122 482.47295349 -617.42026937 491.86992367 -617.44889444 501.26693463 C-617.5001847 518.07169988 -617.56286791 534.87641899 -617.63423485 551.68111062 C-617.65876854 557.54996694 -617.678203 563.41881154 -617.69378108 569.28769803 C-617.78362999 601.76501118 -617.78362999 601.76501118 -618.24389648 616.42773438 C-618.26543824 617.3612611 -618.28698 618.29478783 -618.30917454 619.25660324 C-618.68571796 628.86130314 -619.97331377 638.42458151 -626.97460938 645.46972656 C-637.66670579 654.37622136 -652.71300617 653.93624593 -665.91601562 653.08691406 C-693.59324813 650.41745318 -717.3712334 638.96623447 -735.91601562 618.08691406 C-744.32391454 607.75075733 -750.36677627 595.89287293 -754.29101562 583.21191406 C-754.52957275 582.4592627 -754.76812988 581.70661133 -755.01391602 580.93115234 C-759.37317409 565.85413759 -759.2184962 550.01117353 -759.18164062 534.46191406 C-759.18299272 532.41943313 -759.18493775 530.37695251 -759.18743896 528.33447266 C-759.19036464 524.08199966 -759.18617584 519.82961146 -759.17675781 515.57714844 C-759.16536493 510.17488857 -759.17193825 504.77282756 -759.18390274 499.37057495 C-759.19119099 495.1613622 -759.18880174 490.95219522 -759.18364716 486.74298096 C-759.18232983 484.75303116 -759.1838896 482.76307697 -759.18860626 480.77313232 C-759.21676501 465.56141187 -758.81569699 450.2991195 -754.79101562 435.52441406 C-754.4745105 434.35072266 -754.4745105 434.35072266 -754.15161133 433.15332031 C-750.50219308 420.43374059 -744.12732106 409.41379601 -735.91601562 399.08691406 C-735.15289063 398.05566406 -734.38976562 397.02441406 -733.60351562 395.96191406 C-724.27926108 385.98713013 -712.52078706 378.31904637 -700.58007812 371.86035156 C-693.60696387 367.21842506 -692.76139191 361.42549912 -691.16601562 353.64941406 C-690.64785702 351.2878609 -690.1255573 348.92721341 -689.59960938 346.56738281 C-689.32616699 345.33681152 -689.05272461 344.10624023 -688.77099609 342.83837891 C-675.65932867 285.30728761 -652.58976351 225.97159471 -616.79882812 178.63769531 C-614.40976123 175.4010549 -612.18029467 172.07788214 -609.97851562 168.71191406 C-609.58817139 168.12788818 -609.19782715 167.5438623 -608.7956543 166.94213867 C-606.69664843 163.69881643 -605.01457072 160.99215962 -604.91601562 157.08691406 C-606.10435803 153.98302784 -606.10435803 153.98302784 -607.85351562 150.83691406 C-611.30112364 143.60988599 -612.45094907 139.60075538 -609.86132812 131.98535156 C-605.12293873 121.10915208 -597.2414266 113.34498551 -588.91601562 105.08691406 C-587.9082801 104.06859373 -586.90165088 103.04917656 -585.89648438 102.02832031 C-583.58601222 99.6970643 -581.25592339 97.38853243 -578.91601562 95.08691406 C-576.14893151 92.32903821 -573.39363441 89.55992694 -570.64648438 86.78222656 C-564.57960364 80.65917888 -558.52904053 74.62454987 -551.91601562 69.08691406 C-550.98917969 68.28253906 -550.06234375 67.47816406 -549.10742188 66.64941406 C-541.35494313 59.94460039 -533.3088027 53.71190632 -525.04589844 47.65039062 C-523.61299198 46.59854136 -522.18269131 45.54313403 -520.75488281 44.484375 C-444.54480913 -12.0191259 -350.43108693 -41.53240924 -248.91601562 -49.91308594 C-248.11292969 -49.96948242 -247.30984375 -50.02587891 -246.48242188 -50.08398438 C-162.10861529 -55.7876537 -75.07386751 -39.49811107 0 0 Z " fill="#090909" transform="translate(861.916015625,137.9130859375)"/>
<path d="M0 0 C14.96941974 9.06850513 20.51540599 28.4665073 24.74609375 44.46484375 C25.1057994 45.97765433 25.45277599 47.49353056 25.7890625 49.01171875 C25.97597656 49.85210693 26.16289063 50.69249512 26.35546875 51.55834961 C28.19802093 61.02199372 28.18432506 70.47055097 28.1640625 80.07421875 C28.16418335 80.95345001 28.1643042 81.83268127 28.16442871 82.73855591 C28.13438327 98.14400572 26.84279552 112.88099906 23.7890625 128.01171875 C23.55678955 129.24003418 23.55678955 129.24003418 23.31982422 130.49316406 C16.38821602 166.77088316 -4.89587159 197.95305225 -30.2109375 224.01171875 C-30.79061279 224.61113281 -31.37028809 225.21054688 -31.9675293 225.828125 C-35.6638406 229.59543082 -39.47467421 233.0335497 -43.6484375 236.26171875 C-44.24406494 236.72497559 -44.83969238 237.18823242 -45.45336914 237.66552734 C-113.59470293 290.06834272 -198.64447957 304.24610342 -352.2109375 310.01171875 C-352.95899658 310.00205078 -353.70705566 309.99238281 -354.4777832 309.98242188 C-374.47763935 309.70371061 -394.33687675 308.17130656 -414.2109375 306.01171875 C-415.20084686 305.9044043 -415.20084686 305.9044043 -416.21075439 305.79492188 C-430.24429627 304.25619242 -444.13258729 302.30588748 -457.8984375 299.13671875 C-458.88328125 298.91653076 -459.868125 298.69634277 -460.8828125 298.46948242 C-468.55849098 296.57761772 -477.66682091 293.82789363 -482.2109375 287.01171875 C-482.7109375 284.13671875 -482.7109375 284.13671875 -482.2109375 281.01171875 C-467.07760858 263.77653859 -432.10527872 264.70459549 -410.92773438 262.50439453 C-403.65441947 261.74819586 -396.38603138 260.94714691 -389.11776733 260.14407349 C-386.84168503 259.8942108 -384.56508685 259.6496357 -382.28833008 259.40600586 C-374.21183475 258.53200791 -366.20711659 257.46092967 -358.2109375 256.01171875 C-357.16591064 255.82625488 -356.12088379 255.64079102 -355.04418945 255.44970703 C-341.03492428 252.94391695 -327.03314165 250.41574868 -313.2109375 247.01171875 C-312.05899902 246.72876953 -310.90706055 246.44582031 -309.72021484 246.15429688 C-280.31229332 238.87188582 -251.02959907 230.11175456 -223.2109375 218.01171875 C-222.38787109 217.65513184 -221.56480469 217.29854492 -220.71679688 216.93115234 C-210.07668256 212.29268981 -199.58577164 207.3829098 -189.26660156 202.06835938 C-187.851661 201.34105976 -186.43418444 200.61867963 -185.01464844 199.90039062 C-155.44812876 184.93352713 -128.17784584 166.21365205 -103.95703125 143.5703125 C-101.31129147 141.10522067 -98.61337673 138.71254875 -95.8984375 136.32421875 C-92.39715965 133.17251381 -89.19786241 129.94449476 -86.16796875 126.33984375 C-84.64796416 124.53161473 -83.10578007 122.75956286 -81.53515625 120.99609375 C-54.34551613 90.25275149 -34.10997424 51.99418201 -22.00927734 12.83666992 C-20.06262998 6.95913659 -17.49206301 3.36124411 -12.2109375 0.01171875 C-7.84916024 -1.442207 -4.3229926 -1.93236242 0 0 Z " fill="#272727" transform="translate(1042.2109375,838.98828125)"/>
<path d="M0 0 C1.97432007 -0.0009668 1.97432007 -0.0009668 3.98852539 -0.00195312 C17.47867746 0.04472455 30.87608796 1.000588 44.3125 2.1875 C44.3125 2.5175 44.3125 2.8475 44.3125 3.1875 C42.82931274 3.17178955 42.82931274 3.17178955 41.31616211 3.15576172 C-40.82444388 2.36719191 -122.31680378 17.57640084 -192.6875 62.1875 C-193.73719971 62.84613037 -193.73719971 62.84613037 -194.80810547 63.51806641 C-204.68192526 69.72969283 -214.31294202 76.24512516 -223.6875 83.1875 C-224.22826172 83.58791504 -224.76902344 83.98833008 -225.32617188 84.40087891 C-240.34279895 95.59124056 -253.86115318 108.0313695 -267.05737305 121.29663086 C-269.50672052 123.75675008 -271.96665139 126.20592382 -274.42773438 128.65429688 C-282.29580812 136.51461515 -289.9494418 144.32001657 -296.6875 153.1875 C-297.30939209 153.98631592 -297.93128418 154.78513184 -298.57202148 155.6081543 C-343.0087628 213.0370681 -369.35748935 278.15847679 -379.4375 349.9375 C-379.55319336 350.75710205 -379.66888672 351.5767041 -379.78808594 352.42114258 C-381.57621311 365.99107124 -381.84213288 379.56594658 -381.87695312 393.22900391 C-381.88491894 394.98709806 -381.89330863 396.74519034 -381.90208435 398.50328064 C-381.91999817 402.26148543 -381.93506468 406.01968648 -381.94786072 409.77791214 C-381.96832316 415.75198217 -381.99594618 421.72600683 -382.02453613 427.70004272 C-382.0843389 440.4041735 -382.13620506 453.1083325 -382.1875 465.8125 C-382.24286683 479.48700488 -382.2998922 493.16149565 -382.36504889 506.83595788 C-382.38842701 511.78694999 -382.41001979 516.73793539 -382.42713928 521.6889534 C-382.48893865 539.4047877 -382.55305967 557.12282696 -383.01757812 574.83349609 C-383.04969013 576.56465636 -383.04969013 576.56465636 -383.08245087 578.33078957 C-383.39853051 588.19149192 -385.78407048 595.89514487 -392.6875 603.1875 C-400.32885845 609.25036187 -409.40190957 609.47900024 -418.6875 609.3125 C-419.65300781 609.30347656 -420.61851562 609.29445313 -421.61328125 609.28515625 C-423.97162099 609.26180635 -426.32942286 609.22906047 -428.6875 609.1875 C-428.6875 608.5275 -428.6875 607.8675 -428.6875 607.1875 C-427.2025 606.93226563 -427.2025 606.93226563 -425.6875 606.671875 C-411.71048005 604.23349891 -411.71048005 604.23349891 -401.03228664 595.43590164 C-396.68304347 588.16423106 -396.20661677 578.81565868 -396.01538086 570.52832031 C-395.98244147 569.47896931 -395.94950209 568.4296183 -395.91556454 567.34846878 C-395.48582406 551.75135549 -395.49911728 536.14162153 -395.45770454 520.53978729 C-395.44194377 514.6069215 -395.41800283 508.67410421 -395.39280701 502.74127197 C-395.3224021 485.89020893 -395.26202509 469.03912001 -395.21069336 452.18798828 C-395.1821345 442.8360706 -395.14663293 433.48420326 -395.10403961 424.13233876 C-395.08197256 419.21502251 -395.06332311 414.29775136 -395.05359077 409.38039398 C-394.93779206 353.06494578 -394.93779206 353.06494578 -390.4375 329.4375 C-390.22206543 328.25325439 -390.00663086 327.06900879 -389.78466797 325.84887695 C-387.54329433 313.84815556 -384.80137936 301.98989036 -381.6875 290.1875 C-381.43274902 289.21039063 -381.17799805 288.23328125 -380.91552734 287.2265625 C-363.16421783 220.09433745 -323.03286871 152.17068143 -269.875 106.8125 C-266.88519527 104.24001027 -263.96540107 101.60759885 -261.0625 98.9375 C-191.017366 35.91816972 -93.9046089 -0.04872782 0 0 Z " fill="#67727B" transform="translate(638.6875,183.8125)"/>
<path d="M0 0 C3.43613527 0.58813323 6.35128139 1.46248343 9.51171875 2.92578125 C10.77338867 3.50295898 10.77338867 3.50295898 12.06054688 4.09179688 C12.92744141 4.49462891 13.79433594 4.89746094 14.6875 5.3125 C19.69780064 7.62523954 24.68779407 9.90556117 29.83984375 11.88671875 C36.06222414 14.34220089 41.94949151 17.40747152 47.875 20.5 C48.46204712 20.80546753 49.04909424 21.11093506 49.65393066 21.42565918 C76.63287307 35.49107303 101.88769617 52.47664076 126 71 C126.54188965 71.41572266 127.0837793 71.83144531 127.64208984 72.25976562 C136.06417037 78.74013537 144.20089589 85.499667 152.22363281 92.46630859 C154.04318503 94.03728537 155.87498106 95.59276817 157.7109375 97.14453125 C163.43214808 101.98765183 169.00776999 106.83893641 174.23046875 112.2265625 C175.98116113 113.98111954 177.79839696 115.58391357 179.6875 117.1875 C203.97535347 138.25937287 203.97535347 138.25937287 205.30859375 150.93359375 C205.60964539 159.1167246 204.50158613 164.37042268 200.21484375 171.37890625 C198.7999652 173.90790966 198.7999652 173.90790966 199.10546875 176.5703125 C200.13875942 179.37689239 201.41203371 181.05709179 203.375 183.3125 C245.33271045 234.04859668 271.23182822 300.55525791 284.55859375 364.375 C284.81237793 365.56101807 285.06616211 366.74703613 285.32763672 367.96899414 C285.80489155 370.22160525 286.26214259 372.47858148 286.69580078 374.73999023 C287.93146534 381.01164643 287.93146534 381.01164643 291.69921875 385.953125 C295.32759556 388.20314802 298.97701029 390.31699964 302.75 392.3125 C309.41879663 395.95037246 315.25521129 400.00406643 321 405 C321.62003906 405.48855469 322.24007813 405.97710938 322.87890625 406.48046875 C340.55081934 420.59427854 350.06590597 444.13815897 353 466 C353.32735174 469.98845535 353.47680402 473.97310303 353.59765625 477.97265625 C353.6361116 479.12859283 353.67456696 480.28452942 353.71418762 481.47549438 C354.13518863 495.43553513 354.18721106 509.3979881 354.18530273 523.36328125 C354.18522094 526.38189616 354.19227357 529.40036101 354.20581055 532.41894531 C354.38092251 572.11692862 352.18145557 609.93907433 323.66015625 640.5078125 C309.74979805 653.53983678 293.33747 662.20195435 275 667 C274.0925 667.24621094 273.185 667.49242187 272.25 667.74609375 C263.04141879 669.83241293 253.38151215 669.16539395 244 669 C244 668.34 244 667.68 244 667 C244.5576001 666.90501221 245.1152002 666.81002441 245.68969727 666.7121582 C275.93332278 661.47738584 302.30184167 650.97693738 320.921875 625.35546875 C337.81203619 599.8333889 340.14591109 573.54857039 340.203125 543.90625 C340.20595238 542.90732224 340.20877975 541.90839447 340.21169281 540.87919617 C340.22659925 535.59003444 340.23588199 530.30089937 340.24023438 525.01171875 C340.24569952 519.6141795 340.26971119 514.21689495 340.29820633 508.81943512 C340.3170414 504.61005999 340.32204931 500.40074362 340.32357025 496.19132996 C340.32655163 494.20467236 340.33442206 492.21801462 340.34775543 490.23139954 C340.52326209 462.067663 336.96034963 435.1935882 318 413 C317.35675781 412.20078125 316.71351563 411.4015625 316.05078125 410.578125 C307.14942013 399.98205002 295.57747926 393.03276629 283.59765625 386.3984375 C282.56898438 385.81835938 282.56898438 385.81835938 281.51953125 385.2265625 C280.91214111 384.89221191 280.30475098 384.55786133 279.67895508 384.21337891 C275.17967341 380.96175321 274.24468868 376.8297354 273.203125 371.61328125 C273.04903168 370.88792175 272.89493835 370.16256226 272.73617554 369.41522217 C272.40560248 367.85886624 272.07905749 366.30165028 271.75616455 364.74368286 C270.89975529 360.6302231 270.00158134 356.52598017 269.1015625 352.421875 C268.92261444 351.60513809 268.74366638 350.78840118 268.55929565 349.94691467 C255.90446879 292.65579071 228.7568883 215.62201148 185 174 C186.02463405 171.37138274 187.09546356 168.79547655 188.2890625 166.23828125 C192.14853787 157.78580448 193.60402196 151.15363928 190.6875 142.1875 C184.81896546 129.17554239 172.35702946 119.31746594 162.05859375 109.88964844 C160.16275362 108.14939671 158.28142908 106.39527014 156.40625 104.6328125 C150.62175991 99.20953582 144.72210614 94.03767659 138.53515625 89.0703125 C136.18505214 87.15112116 133.93139815 85.1664101 131.6875 83.125 C104.03873663 58.35326844 71.61817333 37.70461939 39.04199219 20.10693359 C37.12768256 19.06921482 35.22310182 18.01568341 33.3203125 16.95703125 C22.51245785 11.00144227 11.27245751 6.00517505 0 1 C0 0.67 0 0.34 0 0 Z " fill="#6B757E" transform="translate(835,125)"/>
<path d="M0 0 C5.96642922 0.36529158 9.66193387 1.83623117 14 6 C31.16258135 25.53776002 35.43076524 55.10352886 35.375 80.0625 C35.37512085 80.89437836 35.3752417 81.72625671 35.37536621 82.58334351 C35.34427815 97.68726331 33.97349071 112.16390134 31 127 C30.75975098 128.24861816 30.75975098 128.24861816 30.51464844 129.52246094 C24.01065343 162.6776457 5.81642113 192.66397156 -17.1796875 216.98828125 C-19.61934465 219.57072769 -21.94222341 222.23604388 -24.25 224.9375 C-27.15131896 228.21260852 -30.12185575 230.8326984 -33.69140625 233.3515625 C-36.01158628 235.00827312 -38.24649327 236.75542095 -40.48339844 238.5222168 C-56.62027103 251.20564506 -74.53592729 261.13899111 -93 270 C-93.65323242 270.31936523 -94.30646484 270.63873047 -94.97949219 270.96777344 C-128.34145637 287.16369986 -164.79650747 294.33321783 -201.05075073 300.65551758 C-202.72596955 300.95157178 -204.39855988 301.26243153 -206.07055664 301.57617188 C-215.02107214 303.20310671 -224.05694695 303.95066934 -233.11108398 304.75 C-235.87342941 304.99433288 -238.63496284 305.24654494 -241.39648438 305.5 C-247.26176334 306.03214896 -253.13026323 306.51989096 -259 307 C-260.08888519 307.09180542 -261.17777039 307.18361084 -262.2996521 307.27819824 C-280.75533927 308.80983435 -299.08752443 309.31935763 -317.5925293 309.26074219 C-321.20960686 309.24935974 -324.82638921 309.25611849 -328.44345665 309.26764679 C-347.71227334 309.3192096 -366.79089892 308.55892274 -386 307 C-386 306.67 -386 306.34 -386 306 C-385.13447006 306.00444122 -384.26894012 306.00888245 -383.37718201 306.01345825 C-327.1450617 306.58056815 -327.1450617 306.58056815 -271 304 C-269.68757324 303.90348145 -268.37514648 303.80696289 -267.02294922 303.70751953 C-195.8832335 298.37138369 -122.45186972 284.78157059 -63 243 C-62.40558105 242.58266602 -61.81116211 242.16533203 -61.19873047 241.73535156 C-44.93673908 230.18396381 -30.2132244 216.80047027 -18 201 C-17.58282715 200.46987305 -17.1656543 199.93974609 -16.73583984 199.39355469 C-3.79873155 182.87585362 6.07214363 164.79577373 13 145 C13.40734375 143.83855469 13.8146875 142.67710937 14.234375 141.48046875 C19.44925267 124.89314632 22.06610579 106.45616136 22.23828125 89.07421875 C22.2480751 88.25279892 22.25786896 87.43137909 22.26795959 86.58506775 C22.6372697 62.01009984 22.6372697 62.01009984 18 38 C17.67854004 36.8553125 17.67854004 36.8553125 17.35058594 35.6875 C13.59887921 22.40634896 7.69580531 11.42399544 0 0 Z " fill="#B7B7B4" transform="translate(1047,842)"/>
<path d="M0 0 C7.87648294 1.73549624 12.35658727 4.09410296 18 10 C19.33062056 11.3360406 20.66416276 12.66917528 22 14 C22.680625 14.68578125 23.36125 15.3715625 24.0625 16.078125 C25.22894413 17.23516232 26.41194824 18.37629888 27.625 19.484375 C29 20.75 29 20.75 31 23 C31 24.32 31 25.64 31 27 C31.66 27 32.32 27 33 27 C33.495 29.97 33.495 29.97 34 33 C34.66 33 35.32 33 36 33 C36.65058529 35.83231547 37.29556713 38.66572201 37.9375 41.5 C38.11990234 42.29148437 38.30230469 43.08296875 38.49023438 43.8984375 C42.55703965 61.94026452 40.87811478 78.93621569 38 97 C37.86658203 97.8446582 37.73316406 98.68931641 37.59570312 99.55957031 C37.22105902 101.89597025 36.83380358 104.22968381 36.4375 106.5625 C36.32301514 107.24626709 36.20853027 107.93003418 36.09057617 108.63452148 C35.43287599 112.32295629 34.44261563 115.55405398 33 119 C32.32543369 121.33106181 31.65940583 123.66460435 31 126 C30.17844579 128.48309494 29.34483723 130.96222994 28.5 133.4375 C26.75977002 138.58194767 25.18999098 143.69913107 24 149 C23.34 149 22.68 149 22 149 C21.896875 150.216875 21.79375 151.43375 21.6875 152.6875 C21.21406626 156.50831031 20.03399313 158.71431879 18 162 C17.46628179 163.65617712 16.96953649 165.32449612 16.5 167 C15.42943454 170.78601015 14.06494261 173.64446826 12 177 C10.89456148 179.96802672 9.92990691 182.97285624 9 186 C8.34 186 7.68 186 7 186 C6.91234375 186.83402344 6.8246875 187.66804687 6.734375 188.52734375 C5.87358279 192.59779201 4.19670145 195.93032726 2.25 199.5625 C-0.29087358 204.31686538 -2.43693954 209.05604631 -4.30859375 214.1171875 C-6.84824076 220.85701995 -10.00032247 227.20785109 -13.30044556 233.59732056 C-22.63623025 251.72529014 -30.95217039 270.27106413 -39 289 C-39.410224 289.95129791 -39.410224 289.95129791 -39.82873535 290.92181396 C-50.28009825 315.17994347 -59.04868732 339.99998192 -64 366 C-64.26719849 367.39992188 -64.26719849 367.39992188 -64.53979492 368.828125 C-65.34041176 374.34622258 -65.26418285 379.89974462 -65.29516602 385.46533203 C-65.3066366 386.8944696 -65.32701004 388.32356601 -65.35668945 389.75244141 C-65.61175175 402.07237772 -64.1476874 414.15317175 -56 424 C-51.93962579 428.02399093 -47.59874698 431.61090075 -43 435 C-50.68628768 435.87014577 -55.66948506 433.24924976 -62 429 C-64.36711195 427.10540176 -66.05564005 425.3647621 -68 423 C-68 422.01 -68 421.02 -68 420 C-68.66 420 -69.32 420 -70 420 C-70.80324487 418.35978625 -71.59190592 416.71242943 -72.375 415.0625 C-72.81585937 414.14597656 -73.25671875 413.22945312 -73.7109375 412.28515625 C-77.0290657 403.8289568 -77.31048812 395.77281092 -77.25 386.75 C-77.25773438 385.61175781 -77.26546875 384.47351563 -77.2734375 383.30078125 C-77.24023067 368.67317468 -74.62745983 354.14288872 -69.76171875 340.34375 C-68.2330249 335.64007661 -67.14717365 330.80836615 -66 326 C-65.34 326 -64.68 326 -64 326 C-63.938125 324.9275 -63.87625 323.855 -63.8125 322.75 C-63.21278042 317.90083886 -61.41139131 313.76460241 -59.44921875 309.3203125 C-58.30317731 306.69461109 -57.22601127 304.066479 -56.17578125 301.40234375 C-53.76825944 295.34694126 -51.13894652 289.3949038 -48.5 283.4375 C-48.02691406 282.36564453 -47.55382812 281.29378906 -47.06640625 280.18945312 C-45.71328528 277.12525259 -44.35787978 274.06209465 -43 271 C-42.70570602 270.32678207 -42.41141205 269.65356415 -42.10820007 268.95994568 C-39.65387912 263.37459016 -37.03266462 257.88791335 -34.33203125 252.41796875 C-33.42894826 250.57881935 -32.52595653 248.73962513 -31.62304688 246.90039062 C-30.2271105 244.06162219 -28.83017596 241.22335498 -27.43139648 238.38598633 C-21.37550346 226.09408733 -15.5446977 213.73322978 -9.98513794 201.20901489 C-8.55476609 198.00163389 -7.09216982 194.80970215 -5.62890625 191.6171875 C5.16874377 167.9431036 14.55793595 143.95406383 22 119 C22.25652344 118.14325684 22.51304687 117.28651367 22.77734375 116.40380859 C31.33353782 87.34165481 36.73440101 51.41348842 21.6796875 23.73828125 C16.44646699 15.20691478 10.47806063 9.45014103 2.34375 3.8125 C1.5703125 3.214375 0.796875 2.61625 0 2 C0 1.34 0 0.68 0 0 Z " fill="#7B8289" transform="translate(923,398)"/>
<path d="M0 0 C1.1240625 -0.00515625 2.248125 -0.0103125 3.40625 -0.015625 C6.35041743 0.23715705 8.01695505 0.71635459 10.5 2.25 C10.5 2.58 10.5 2.91 10.5 3.25 C9.83613281 3.35957031 9.17226563 3.46914063 8.48828125 3.58203125 C7.60527344 3.74058594 6.72226562 3.89914062 5.8125 4.0625 C4.50732422 4.28873047 4.50732422 4.28873047 3.17578125 4.51953125 C-5.28829023 6.83016098 -12.06946413 14.14491022 -16.42700195 21.50463867 C-17.0431194 22.71956041 -17.64620271 23.94115232 -18.23828125 25.16796875 C-18.74211838 26.19571915 -18.74211838 26.19571915 -19.25613403 27.24423218 C-23.97111609 37.06897106 -27.87966596 47.2432242 -31.875 57.375 C-32.75167937 59.58039782 -33.62896928 61.78555303 -34.50683594 63.99047852 C-38.80790579 74.81202784 -43.0550625 85.65340337 -47.2421875 96.51953125 C-48.74302885 100.40953738 -50.24544235 104.29892969 -51.75 108.1875 C-52.30154251 109.61302689 -52.30154251 109.61302689 -52.86422729 111.06735229 C-58.69565196 126.09132213 -65.12108399 140.74810315 -71.92495728 155.35255432 C-89.27123966 192.60426681 -101.9500885 231.51345503 -111 271.5625 C-116.06111806 293.81818402 -122.01932012 316.77181304 -137.5 334.25 C-138.27730469 335.16652344 -138.27730469 335.16652344 -139.0703125 336.1015625 C-154.38802135 352.89924322 -181.67820443 356.17457766 -203.27319336 357.23681641 C-213.05256996 357.50774764 -222.79896215 356.37629642 -232.5 355.25 C-232.5 354.92 -232.5 354.59 -232.5 354.25 C-231.6970752 354.21559814 -230.89415039 354.18119629 -230.06689453 354.14575195 C-215.68836314 353.48642075 -201.47868953 352.63657168 -187.3125 349.9375 C-186.29494629 349.74905518 -185.27739258 349.56061035 -184.22900391 349.36645508 C-166.13162801 345.66845144 -151.74942986 336.79226428 -141.3581543 321.46508789 C-126.83912605 298.82698112 -121.48439212 268.2832637 -116.17919922 242.21289062 C-115.59553117 239.66673841 -114.89426175 237.36121715 -113.9375 234.9375 C-112.83698817 232.11444792 -112.14201259 229.79798015 -111.5625 226.875 C-110.90113798 223.66416495 -109.98303322 220.78668277 -108.71484375 217.765625 C-106.70554752 212.84395772 -104.94221711 207.86146124 -103.20336914 202.83886719 C-96.26027126 182.85333814 -87.92323628 163.55481121 -79 144.375 C-72.59225437 130.56445318 -67.0340007 116.42681655 -61.5 102.25 C-61.17652588 101.42179749 -60.85305176 100.59359497 -60.51977539 99.74029541 C-55.76035345 87.55343629 -55.76035345 87.55343629 -51.01879883 75.35961914 C-47.97216453 67.51532093 -44.89946078 59.6913695 -41.62866211 51.93701172 C-40.46769737 49.17309697 -39.33913324 46.39778157 -38.21875 43.6171875 C-37.85136719 42.70839844 -37.48398437 41.79960938 -37.10546875 40.86328125 C-36.3657768 39.03104076 -35.62881586 37.19769546 -34.89453125 35.36328125 C-29.52634244 22.12174885 -23.87052017 8.99143874 -10.5 2.25 C-9.89671875 1.88390625 -9.2934375 1.5178125 -8.671875 1.140625 C-5.7152769 -0.07179293 -3.18554241 -0.01461258 0 0 Z " fill="#888D93" transform="translate(603.5,528.75)"/>
<path d="M0 0 C1.63001953 0.01353516 1.63001953 0.01353516 3.29296875 0.02734375 C4.12441406 0.03894531 4.95585938 0.05054688 5.8125 0.0625 C6.1425 0.7225 6.4725 1.3825 6.8125 2.0625 C4.5025 2.3925 2.1925 2.7225 -0.1875 3.0625 C-0.1875 3.7225 -0.1875 4.3825 -0.1875 5.0625 C-2.05078125 6.53515625 -2.05078125 6.53515625 -4.5 8.125 C-5.70076172 8.91583984 -5.70076172 8.91583984 -6.92578125 9.72265625 C-9.1875 11.0625 -9.1875 11.0625 -12.1875 12.0625 C-12.47625 12.64 -12.765 13.2175 -13.0625 13.8125 C-14.1875 16.0625 -14.1875 16.0625 -16.5625 18.3125 C-18.80342783 20.66013868 -19.75534815 21.95841275 -21.0625 24.7734375 C-23.04276695 28.86221018 -25.35146637 32.62483088 -27.8125 36.4375 C-44.91649165 63.51803132 -57.83655524 93.01471979 -71.1875 122.0625 C-71.83022547 123.46013079 -72.47296688 124.85775424 -73.11572266 126.25537109 C-75.92387405 132.36252649 -78.73061688 138.47032651 -81.53417969 144.57958984 C-85.26196992 152.70200587 -88.99634863 160.8212866 -92.74609375 168.93359375 C-93.12341644 169.74995804 -93.50073914 170.56632233 -93.88949585 171.40742493 C-95.40925095 174.69530317 -96.92906721 177.98315313 -98.44909668 181.27090454 C-103.40191825 191.98666222 -108.31203613 202.72060929 -113.17947388 213.47540283 C-115.29085211 218.13593142 -117.41250537 222.79177732 -119.53710938 227.44628906 C-120.59531173 229.76494192 -121.65148557 232.08452226 -122.70507812 234.40527344 C-131.19463762 253.03032743 -141.13146544 270.24807963 -154.1875 286.0625 C-154.65655762 286.63307129 -155.12561523 287.20364258 -155.60888672 287.79150391 C-159.0534011 291.95603877 -162.58350071 296.03540708 -166.1875 300.0625 C-166.6530127 300.58682617 -167.11852539 301.11115234 -167.59814453 301.65136719 C-177.6143073 312.78834391 -189.07332257 318.81190952 -204.0546875 320.04296875 C-209.84344338 320.07905825 -215.50054815 319.06705646 -221.1875 318.0625 C-221.1875 317.7325 -221.1875 317.4025 -221.1875 317.0625 C-220.20910156 316.95292969 -219.23070312 316.84335937 -218.22265625 316.73046875 C-201.32530527 314.73784642 -188.60230989 309.9508398 -177.34375 296.515625 C-175.40845136 294.3138722 -173.53229378 292.78335723 -171.1875 291.0625 C-170.16445052 289.40988161 -169.16133946 287.74458635 -168.1875 286.0625 C-167.5275 285.7325 -166.8675 285.4025 -166.1875 285.0625 C-165.05399466 283.04580173 -165.05399466 283.04580173 -164.1875 281.0625 C-163.5275 281.0625 -162.8675 281.0625 -162.1875 281.0625 C-161.8575 279.7425 -161.5275 278.4225 -161.1875 277.0625 C-160.5275 277.0625 -159.8675 277.0625 -159.1875 277.0625 C-158.8575 275.7425 -158.5275 274.4225 -158.1875 273.0625 C-157.5275 273.0625 -156.8675 273.0625 -156.1875 273.0625 C-156.1875 272.0725 -156.1875 271.0825 -156.1875 270.0625 C-155.5275 270.0625 -154.8675 270.0625 -154.1875 270.0625 C-154.1875 269.0725 -154.1875 268.0825 -154.1875 267.0625 C-153.5275 267.0625 -152.8675 267.0625 -152.1875 267.0625 C-152.084375 266.505625 -151.98125 265.94875 -151.875 265.375 C-151.04571592 262.5855899 -149.84450944 260.4485936 -148.1875 258.0625 C-147.5275 258.0625 -146.8675 258.0625 -146.1875 258.0625 C-145.5275 255.7525 -144.8675 253.4425 -144.1875 251.0625 C-143.5275 251.0625 -142.8675 251.0625 -142.1875 251.0625 C-142.09210938 250.36898437 -141.99671875 249.67546875 -141.8984375 248.9609375 C-141.04402875 245.47757873 -139.57087927 242.81103448 -137.8125 239.6875 C-135.33423805 235.19533476 -133.10596755 230.81299107 -131.1875 226.0625 C-128.97876783 220.94310807 -126.6376881 215.92183428 -124.1171875 210.94921875 C-122.99405344 208.66991728 -121.9989746 206.34223398 -121.0144043 204.00024414 C-117.33470612 195.37734352 -113.25457365 186.92526764 -109.25854492 178.44604492 C-103.32419197 165.84683932 -97.49838824 153.20282356 -91.76080322 140.51290894 C-86.40794497 128.67900603 -80.93253955 116.90619324 -75.37304688 105.16796875 C-72.01068575 98.052987 -68.75887075 90.90207428 -65.6496582 83.67234802 C-62.47165136 76.31064733 -58.88792872 69.17309594 -55.1875 62.0625 C-54.81206055 61.33144043 -54.43662109 60.60038086 -54.04980469 59.84716797 C-48.29767321 48.71577232 -41.81340487 38.16960231 -34.875 27.75 C-34.48886536 27.16809906 -34.10273071 26.58619812 -33.70489502 25.98666382 C-22.36130874 8.94594908 -22.36130874 8.94594908 -14.5 4.1875 C-13.56800781 3.61257813 -12.63601563 3.03765625 -11.67578125 2.4453125 C-7.60919127 0.18538651 -4.58581486 -0.04930984 0 0 Z " fill="#82888F" transform="translate(821.1875,503.9375)"/>
<path d="M0 0 C4.84659077 0.59104765 8.60748167 1.97944157 13 4 C13 4.66 13 5.32 13 6 C13.99 6.309375 13.99 6.309375 15 6.625 C21.54370798 9.62419949 26.84120554 14.15169529 31 20 C31 20.99 31 21.98 31 23 C31.66 23 32.32 23 33 23 C36.6116599 30.07283398 37.0850667 36.05362809 34.75 43.6875 C29.8526506 56.63528678 18.96747733 63.79093932 6.87109375 69.34375 C-14.33555216 78.61172578 -40.56473621 77.5541012 -63 74 C-63 73.67 -63 73.34 -63 73 C-62.11965088 72.98018066 -61.23930176 72.96036133 -60.33227539 72.93994141 C-32.57107317 73.48958823 -32.57107317 73.48958823 -6.15625 66.94140625 C-3.92375314 65.96671106 -1.8173496 65.43609525 0.5625 64.9375 C2.2640625 64.4734375 2.2640625 64.4734375 4 64 C4.33 63.01 4.66 62.02 5 61 C5.61875 60.855625 6.2375 60.71125 6.875 60.5625 C9.72589263 59.80785195 10.29795391 58.34031338 12 56 C12.62648438 55.72285156 13.25296875 55.44570313 13.8984375 55.16015625 C16.59371963 53.67224028 17.53914994 51.99040717 19.125 49.375 C20.6328125 46.8984375 20.6328125 46.8984375 22 45 C22.66 45 23.32 45 24 45 C25.33031414 32.20022072 25.02665166 24.38509993 17 14 C14.15694688 10.81848818 11.82978004 8.78723069 8 7 C7 6 6 5 5 4 C3.33675599 2.99431758 1.67063747 1.99335201 0 1 C0 0.67 0 0.34 0 0 Z " fill="#9EA0A2" transform="translate(938,845)"/>
<path d="M0 0 C9.63600557 1.01431638 16.88924179 5.33870566 24.45703125 11.11328125 C26.55746216 12.67166547 28.5737111 13.96447228 30.875 15.1875 C34 17 34 17 36.28125 19.32421875 C39.16983654 22.16715234 42.26205779 24.39839443 45.625 26.625 C52.48214286 31.19642857 52.48214286 31.19642857 55 34 C42.96436269 31.95621253 34.1366215 23.58524587 24.85742188 16.21069336 C19.1114531 11.70730845 13.25522103 7.98121121 6.8203125 4.55078125 C4.35157027 3.19331495 2.19577697 1.75556081 0 0 Z " fill="#58646D" transform="translate(736,366)"/>
<path d="M0 0 C5.63822699 0.58295077 10.22680243 2.65588011 15.3125 5 C16.18825684 5.39936768 17.06401367 5.79873535 17.96630859 6.21020508 C29.28353551 11.43314723 40.37591581 17.15098282 50.921875 23.80859375 C53.21005136 25.12042418 55.53374584 26.07299887 58 27 C56.421875 27.6953125 56.421875 27.6953125 54 28 C51.61555085 27.06456225 49.49809732 26.07387144 47.25 24.875 C46.56824707 24.5238916 45.88649414 24.1727832 45.18408203 23.81103516 C39.74615676 20.98637158 34.38051783 18.02799164 29.00488281 15.0871582 C27.97202148 14.522146 26.93916016 13.95713379 25.875 13.375 C24.84729492 12.81192139 23.81958984 12.24884277 22.76074219 11.66870117 C15.33646376 7.63503341 7.88512098 4.0402139 0 1 C0 0.67 0 0.34 0 0 Z " fill="#58636C" transform="translate(544,384)"/>
<path d="M0 0 C0.66 0.33 1.32 0.66 2 1 C-10.54 13.54 -23.08 26.08 -36 39 C-36 36 -36 36 -34.71484375 34.45703125 C-34.12832031 33.91433594 -33.54179687 33.37164062 -32.9375 32.8125 C-30.37728584 30.36493526 -27.98179197 27.88602436 -25.6875 25.1875 C-19.54753557 18.08386403 -12.82330312 11.57617858 -5.6953125 5.47265625 C-3.69997138 3.73937606 -1.83007366 1.90632672 0 0 Z " fill="#5D5B8F" transform="translate(389,285)"/>
<path d="M0 0 C4.62642926 -0.07426356 9.25251009 -0.12865492 13.87939453 -0.16479492 C15.45269822 -0.17986364 17.02596002 -0.20032245 18.59912109 -0.22631836 C20.86306096 -0.26278738 23.12644457 -0.27974508 25.390625 -0.29296875 C26.09181458 -0.30845261 26.79300415 -0.32393646 27.51544189 -0.33988953 C31.64215024 -0.3413055 34.00231108 0.08632703 37 3 C24.4730148 3.23753035 12.39173821 2.96304764 0 1 C0 0.67 0 0.34 0 0 Z " fill="#8B8A97" transform="translate(875,918)"/>
<path d="M0 0 C0 0.33 0 0.66 0 1 C2.97 1.33 5.94 1.66 9 2 C9 2.33 9 2.66 9 3 C-4.89701717 4.18750493 -18.1530892 3.60763481 -32 2 C-32 1.67 -32 1.34 -32 1 C-21.32089373 0.36850058 -10.7016389 -0.17291697 0 0 Z " fill="#9693A1" transform="translate(403,882)"/>
<path d="M0 0 C5.65020618 0.60108576 10.66164461 2.07528683 16 4 C14.390625 5.1484375 14.390625 5.1484375 12 6 C8.984375 5.1015625 8.984375 5.1015625 5.75 3.625 C4.67234375 3.14289063 3.5946875 2.66078125 2.484375 2.1640625 C1.66453125 1.77992188 0.8446875 1.39578125 0 1 C0 0.67 0 0.34 0 0 Z " fill="#5E6677" transform="translate(909,393)"/>
</svg>
